HIERARCHY
ROOT pelvis
{
  OFFSET 0 100 0
  CHANNELS 6 Xposition Yposition Zposition Zrotation Xrotation Yrotation
  JOINT pelvis_right_femur
  {
    OFFSET -10.78128 -3.44521 -0.5502486
    CHANNELS 3 Zrotation Xrotation Yrotation
    JOINT right_femur_tibia
    {
      OFFSET -0.8047443 -44.0398 -0.1307829
      CHANNELS 3 Zrotation Xrotation Yrotation
      JOINT right_tibia_foot
      {
        OFFSET 3.006224 -47.83518 -5
        CHANNELS 3 Zrotation Xrotation Yrotation
        End Site
        {
          OFFSET 0 -5 15
        }
      }
    }
  }
  JOINT pelvis_left_femur
  {
    OFFSET 10.78128 -3.44521 -0.5502486
    CHANNELS 3 Zrotation Xrotation Yrotation
    JOINT left_femur_tibia
    {
      OFFSET 0.8047443 -44.0398 -0.1307829
      CHANNELS 3 Zrotation Xrotation Yrotation
      JOINT left_tibia_foot
      {
        OFFSET -4.370144 -48.10324 -4.275266
        CHANNELS 3 Zrotation Xrotation Yrotation
        End Site
        {
          OFFSET 0 -5 15
        }
      }
    }
  }
  JOINT pelvis_spine1
  {
    OFFSET 0 6.468898 -3.129235
    CHANNELS 3 Zrotation Xrotation Yrotation
    JOINT spine1
    {
      OFFSET 0 23.15396 4.99043
      CHANNELS 3 Zrotation Xrotation Yrotation
      JOINT spine2
      {
        OFFSET 0 20.79997 -5.064912
        CHANNELS 3 Zrotation Xrotation Yrotation
        JOINT neck
        {
          OFFSET 0 14.38658 9.616178
          CHANNELS 3 Zrotation Xrotation Yrotation
          End Site
          {
            OFFSET 0 20 0
          }
        }
      }
      JOINT right_manubrium
      {
        OFFSET -5.722621 16.35077 3.967754
        CHANNELS 3 Zrotation Xrotation Yrotation
        JOINT right_clavicle
        {
          OFFSET -13.16364 1.694482 -4.693211
          CHANNELS 3 Zrotation Xrotation Yrotation
          JOINT right_humerus
          {
            OFFSET -28.5034 -0.3100689 -2.792744
            CHANNELS 3 Zrotation Xrotation Yrotation
            JOINT right_radius
            {
              OFFSET -25.15693 0.02248979 -1.271978
              CHANNELS 3 Zrotation Xrotation Yrotation
              End Site
              {
                OFFSET -15 0 0
              }
            }
          }
        }
      }
      JOINT left_manubrium
      {
        OFFSET 5.722621 16.35077 3.967754
        CHANNELS 3 Zrotation Xrotation Yrotation
        JOINT left_clavicle
        {
          OFFSET 13.16364 1.694482 -4.693211
          CHANNELS 3 Zrotation Xrotation Yrotation
          JOINT left_humerus
          {
            OFFSET 29.39168 -1.063119 -2.237045
            CHANNELS 3 Zrotation Xrotation Yrotation
            JOINT left_radius
            {
              OFFSET 24.59957 -0.9528479 0.9047498
              CHANNELS 3 Zrotation Xrotation Yrotation
              End Site
              {
                OFFSET 15 -0 -0
              }
            }
          }
        }
      }
    }
  }
}
MOTION
Frames: 19
Frame Time: 0.0416666666667
0 103.5113 0 2.147606 0.06589743 0.1534901 3.758211 -15.35003 10.47364 -0 39.09691 -0 -4.451284 -17.39924 -1.714227 -9.096889 8.65672 -23.59795 -0 5.048618 -0 20.39609 -10.5376 31.23231 -1.264009 -2.063348 6.295264 1.618035 11.062 -7.040093 2.063921 21.3752 5.198628 2.779726 -24.81746 8.750071 4.592231 -19.99621 10.99262 87.88514 35.92561 -19.48493 -0 0 14.82915 -7.917352 8.245078 3.415166 6.079081 -21.03179 -2.223918 -92.37972 22.84216 21.8663 0 0 -16.8142 13.52595 14.8815 -0.671492
0.4684353 103.6647 1.50084 1.608994 0.9394188 0.338903 4.849229 -17.43104 11.02679 -0 38.78591 -0 -4.855624 -15.97092 -1.399434 -8.87449 8.196601 -23.34102 -0 5.485228 -0 20.82474 -10.67044 30.92841 -1.305364 -2.121516 6.123692 1.800024 11.04985 -7.182608 2.030039 21.30823 5.292572 2.789876 -25.0587 8.820341 4.619403 -19.83969 11.03529 88.01662 35.58983 -19.82251 -0 0 14.52426 -7.897138 8.320993 3.382663 6.02165 -21.0505 -2.23896 -92.35948 22.68112 21.66006 0 0 -16.75371 13.44887 14.82951 -0.7418903
0.8432637 103.503 3.481819 0.9814 1.466496 0.4805013 4.994233 -21.88185 8.291365 -0 31.30995 -0 -5.960184 -12.7281 -1.28945 -7.840827 10.32131 -21.7649 -0 5.732184 -0 15.02873 -15.78069 27.49542 -1.341257 -2.156876 5.988129 1.935636 11.01926 -7.286728 1.99857 21.25371 5.3731 2.809455 -25.21836 8.861335 4.66538 -19.70714 11.06937 88.06014 35.36678 -20.03638 -0 0 14.31112 -7.891911 8.385655 3.392562 5.991222 -21.06004 -2.233047 -92.34366 22.60435 21.4966 0 0 -16.73117 13.3238 14.79302 -0.7079505
1.196042 103.3129 5.39779 0.4492567 2.207121 0.5823308 5.573495 -23.36444 9.521318 -0 30.42114 -0 -5.436864 -12.888 -2.320119 -7.30066 10.5027 -22.12516 -0 5.312564 -0 11.74412 -18.05188 26.81543 -1.357828 -2.171666 5.879422 2.053983 11.00793 -7.380019 1.963613 21.2043 5.433954 2.820741 -25.33896 8.869551 4.670439 -19.59679 11.11211 88.10711 35.13371 -20.20319 -0 0 14.09268 -7.964001 8.460003 3.452556 5.959518 -21.0912 -2.233446 -92.27718 22.46638 21.31156 0 0 -16.75294 13.23155 14.72425 -0.7131658
1.528292 102.9765 7.632937 -0.01302152 2.616294 0.721455 6.010504 -26.36177 8.486375 -0 27.29858 -0 -6.083279 -10.74115 -2.148032 -6.793884 11.26254 -21.03361 -0 5.821951 -0 9.705805 -19.81241 24.88358 -1.366953 -2.17211 5.787226 2.155559 10.99917 -7.459706 1.928411 21.16108 5.483763 2.831716 -25.42221 8.85732 4.672088 -19.49454 11.15555 88.13309 34.92611 -20.32872 -0 0 13.88842 -8.06106 8.533428 3.540897 5.930933 -21.12521 -2.236534 -92.19568 22.34043 21.12893 0 0 -16.80594 13.12495 14.64603 -0.6845803
1.848099 102.5341 10.26325 -0.4556486 3.163482 0.9314493 6.510924 -29.33628 7.565948 -0 24.17511 -0 -6.710036 -8.420641 -1.797016 -6.379015 11.88277 -19.86708 -0 6.659284 -0 8.265285 -21.01041 23.00062 -1.366969 -2.162901 5.711773 2.242804 10.99911 -7.529581 1.894176 21.12314 5.522036 2.839114 -25.48054 8.830898 4.658619 -19.40509 11.19912 88.15986 34.72777 -20.43056 -0 0 13.69075 -8.18262 8.605621 3.644986 5.903822 -21.16661 -2.244874 -92.09746 22.20388 20.94642 0 0 -16.88309 13.03225 14.55773 -0.6623448
2.15556 102.0076 13.39197 -0.8423746 3.697299 1.241245 6.915277 -31.96988 6.468562 -0 20.94158 -0 -7.393563 -5.885132 -1.249036 -6.028902 12.5186 -18.54069 -0 8.047749 -0 7.041488 -21.65761 20.91334 -1.360452 -2.145101 5.650471 2.316752 11.00561 -7.589415 1.861558 21.09108 5.549796 2.843839 -25.51471 8.79228 4.637547 -19.32508 11.24184 88.1834 34.54279 -20.51096 -0 0 13.50146 -8.318701 8.674491 3.761051 5.87675 -21.21083 -2.259557 -91.9895 22.07032 20.76877 0 0 -16.97991 12.94228 14.46244 -0.6305588
2.456039 101.4714 17.1032 -1.26226 4.269468 1.679019 7.373733 -34.05259 5.478184 -0 18.01188 -0 -8.106007 -3.315987 -0.6232017 -5.66723 13.08917 -17.19317 -0 10.23945 -0 5.633388 -21.71946 18.55347 -1.347564 -2.120794 5.603723 2.377391 11.02025 -7.639528 1.831536 21.0652 5.566682 2.84489 -25.52854 8.744471 4.606775 -19.25672 11.28285 88.2093 34.36868 -20.57433 -0 0 13.32166 -8.465544 8.738652 3.882759 5.849024 -21.25763 -2.281312 -91.87445 21.93682 20.5991 0 0 -17.09082 12.86286 14.36207 -0.5994282
2.758475 101.0228 21.45616 -1.759949 4.815236 2.249483 7.937645 -35.29454 4.692144 -0 15.74765 -0 -8.844779 -0.9065065 -0.002964299 -5.236973 13.5087 -15.86244 -0 13.51646 -0 3.767063 -21.05235 15.85867 -1.329214 -2.090862 5.571006 2.424996 11.04302 -7.679778 1.804596 21.04597 5.572663 2.842073 -25.52328 8.68881 4.567838 -19.20004 11.32175 88.23748 34.2057 -20.62162 -0 0 13.15292 -8.619443 8.797047 4.00747 5.819557 -21.3052 -2.310691 -91.75542 21.8063 20.44042 0 0 -17.21148 12.79269 14.2581 -0.5672129
3.076038 100.7805 26.47531 -2.362688 5.267627 2.920717 8.635809 -35.42079 4.201478 -0 14.41102 -0 -9.568021 1.085112 0.5158626 -4.693245 13.59904 -14.54948 -0 18.21271 -0 1.332808 -19.44481 12.87325 -1.305871 -2.056447 5.552422 2.459537 11.0744 -7.710077 1.781262 21.03368 5.567595 2.834925 -25.50082 8.626939 4.520391 -19.15633 11.3582 88.26936 34.05317 -20.65363 -0 0 12.99734 -8.777916 8.848762 4.132082 5.787747 -21.35261 -2.347711 -91.6348 21.67855 20.29566 0 0 -17.33713 12.73431 14.15216 -0.5375428
3.422044 100.8585 32.12055 -3.019951 5.497712 3.594298 9.376537 -34.13552 4.038367 -0 14.07842 -0 -10.14201 2.287696 0.7839532 -4.039539 13.09092 -13.21956 -0 24.60924 -0 -1.483983 -16.72002 9.882162 -1.278114 -2.018321 5.547836 2.481125 11.11442 -7.73031 1.761819 21.02858 5.551488 2.823198 -25.46241 8.559954 4.464673 -19.12645 11.39206 88.30488 33.91082 -20.67005 -0 0 12.85708 -8.939189 8.893158 4.25489 5.753035 -21.39876 -2.392109 -91.51472 21.55405 20.16729 0 0 -17.46351 12.68825 14.04562 -0.5117017
3.801664 101.3353 38.25623 -3.569621 5.310149 4.092287 9.930872 -31.23513 4.166553 -0 14.51914 -0 -10.35521 2.311788 0.6174908 -3.351734 11.65464 -11.84203 -0 32.76682 -0 -4.175586 -12.97387 7.431452 -1.246406 -1.977214 5.557226 2.489819 11.16303 -7.740382 1.746466 21.03079 5.524402 2.806641 -25.4093 8.488865 4.400463 -19.11152 11.4233 88.34392 33.77821 -20.6701 -0 0 12.73454 -9.102174 8.929721 4.374571 5.71512 -21.44282 -2.443268 -91.39689 21.43248 20.05758 0 0 -17.58649 12.65565 13.93981 -0.4919902
4.201458 102.218 44.64725 -3.742907 4.459358 4.204568 9.980571 -26.76226 4.444444 -0 15.13044 -0 -10.03845 0.9991675 -0.08107824 -2.784166 9.037573 -10.46124 -0 42.22036 -0 -6.118417 -8.852806 6.135104 -1.211194 -1.93368 5.580517 2.485718 11.21996 -7.740207 1.735263 21.04035 5.486478 2.78508 -25.34248 8.414416 4.327525 -19.11261 11.45202 88.38582 33.65494 -20.65235 -0 0 12.63226 -9.266405 8.958085 4.490562 5.673851 -21.48401 -2.500321 -91.28274 21.31343 19.96848 0 0 -17.70231 12.63708 13.83594 -0.4802403
4.587271 103.4259 51.01551 -3.303269 2.787246 3.834296 9.309543 -21.08562 4.633857 -0 15.1528 -0 -9.251502 -1.307077 -1.145031 -2.502343 5.22959 -9.253461 -0 51.70758 -0 -7.020146 -5.491544 6.306564 -1.172883 -1.88819 5.61763 2.468931 11.28477 -7.729726 1.728176 21.05721 5.437922 2.75837 -25.26286 8.337219 4.245429 -19.13089 11.4784 88.42965 33.54062 -20.61496 -0 0 12.55289 -9.431924 8.97797 4.602778 5.629267 -21.52168 -2.562133 -91.17338 21.19617 19.9017 0 0 -17.80746 12.63312 13.73515 -0.4784503
4.919017 104.8041 57.14053 -2.270195 0.4709733 3.12793 8.022248 -14.78576 4.509264 -0 14.1643 -0 -8.298967 -3.833075 -2.137395 -2.535326 0.471532 -8.398296 -0 59.26638 -0 -7.157191 -3.838726 7.737797 -1.131877 -1.841137 5.668409 2.439627 11.35676 -7.708928 1.725067 21.08118 5.379031 2.726413 -25.17125 8.257758 4.153659 -19.16754 11.50265 88.47417 33.43484 -20.55568 -0 0 12.49927 -9.599185 8.989176 4.711616 5.581586 -21.55524 -2.627316 -91.06968 21.07982 19.85871 0 0 -17.8987 12.64408 13.63853 -0.4885145
5.174291 106.1438 62.93265 -0.9813029 -1.917985 2.365834 6.548905 -8.452365 4.05143 -0 12.39591 -0 -7.468888 -5.906343 -2.650218 -2.647386 -4.884976 -7.799475 -0 62.93914 -0 -7.007827 -3.88195 9.854773 -1.088581 -1.792874 5.732591 2.398062 11.43499 -7.677892 1.725705 21.11199 5.310209 2.689151 -25.06847 8.176454 4.051611 -19.22375 11.52506 88.5179 33.33722 -20.47203 -0 0 12.47431 -9.768943 8.991569 4.817845 5.531206 -21.58413 -2.694233 -90.97229 20.96339 19.84072 0 0 -17.97301 12.67009 13.54714 -0.5123227
5.364251 107.2121 68.43085 0.1133798 -3.810278 1.703413 5.384253 -2.5652 3.490185 -0 10.49433 -0 -6.812829 -7.416308 -2.626724 -2.415936 -10.39575 -7.081859 -0 61.71556 -0 -6.736067 -4.732277 12.115 -1.043415 -1.743723 5.809772 2.344608 11.51828 -7.636798 1.729769 21.1492 5.231957 2.646556 -24.95535 8.093659 3.938619 -19.30067 11.54592 88.55916 33.24738 -20.36137 -0 0 12.48093 -9.942209 8.985087 4.922577 5.478674 -21.60787 -2.761047 -90.88164 20.84578 19.84867 0 0 -18.02768 12.71102 13.462 -0.55166
5.532057 107.8066 73.74253 0.7060334 -5.022654 1.114886 4.805523 2.577874 3.068157 -0 9.025621 -0 -6.243964 -8.739893 -2.311136 -1.531164 -15.52713 -5.974033 -0 55.92322 -0 -6.239146 -5.485387 14.22853 -0.996792 -1.693953 5.899424 2.27975 11.60524 -7.585934 1.736864 21.19231 5.144823 2.598604 -24.83271 8.009634 3.813944 -19.39945 11.56553 88.59613 33.16487 -20.22094 -0 0 12.52201 -10.12025 8.969733 5.027259 5.424625 -21.62598 -2.825798 -90.79791 20.72582 19.88322 0 0 -18.06031 12.76651 13.38406 -0.608153
5.73729 107.8159 78.98309 0.7347119 -5.631596 0.5238653 4.781788 6.879927 2.835501 -0 8.212635 -0 -5.729996 -10.34419 -1.927996 -0.03470984 -19.86809 -4.568626 -0 46.84112 -0 -5.496992 -5.766039 16.0151 -0.9491038 -1.643764 6.000928 2.204059 11.69431 -7.525668 1.746528 21.24073 5.049337 2.545233 -24.70128 7.924499 3.676747 -19.52122 11.58421 88.62692 33.08921 -20.04784 -0 0 12.60034 -10.30459 8.945564 5.133696 5.36971 -21.638 -2.886481 -90.72103 20.60233 19.94479 0 0 -18.06885 12.83583 13.31412 -0.6831834
